<?xml version="1.0" encoding="UTF-8"?>
<svg width="59px" height="47px" viewBox="0 0 59 47" version="1.1" xmlns="http://www.w3.org/2000/svg" xmlns:xlink="http://www.w3.org/1999/xlink">
    <!-- Generator: Sketch 55.1 (78136) - https://sketchapp.com -->
    <title>Group</title>
    <desc>Created with Sketch.</desc>
    <g id="Page-1" stroke="none" stroke-width="1" fill="none" fill-rule="evenodd">
        <g id="Group" fill-rule="nonzero">
            <rect id="Rectangle" fill="#419941" x="16.14" y="24.18" width="26.65" height="5.18"></rect>
            <path d="M29.47,16.21 L29.47,16.21 C26.17,16.21 23.5,13.54 23.5,10.24 L23.5,10.23 C23.5,6.98 24.71,3.85 26.9,1.45 L26.9,1.45 C28.28,-0.06 30.66,-0.06 32.04,1.45 L32.04,1.45 C34.23,3.85 35.44,6.98 35.44,10.23 L35.44,10.24 C35.44,13.54 32.77,16.21 29.47,16.21 Z" id="Path" fill="#419941"></path>
            <path d="M24.31,18.54 L24.31,18.54 C21.98,20.87 18.19,20.87 15.86,18.54 L15.85,18.53 C13.55,16.23 12.2,13.16 12.05,9.92 L12.05,9.92 C11.96,7.87 13.64,6.19 15.69,6.28 L15.69,6.28 C18.94,6.43 22.01,7.79 24.3,10.08 L24.31,10.09 C26.64,12.43 26.64,16.21 24.31,18.54 Z" id="Path" fill="#419941"></path>
            <path d="M34.63,18.54 L34.63,18.54 C32.3,16.21 32.3,12.42 34.63,10.09 L34.64,10.08 C36.94,7.78 40.01,6.43 43.25,6.28 L43.25,6.28 C45.3,6.19 46.98,7.87 46.89,9.92 L46.89,9.92 C46.74,13.16 45.38,16.24 43.09,18.53 L43.08,18.54 C40.75,20.87 36.97,20.87 34.63,18.54 Z" id="Path" fill="#419941"></path>
            <path d="M57.42,19.63 C55.02,16.39 51.49,14.17 47.53,13.39 L47.51,13.39 C43.88,12.68 40.35,14.75 39.12,18.12 C38.91,18.7 39.28,19.34 39.89,19.46 L57.03,22.81 C57.71,22.94 58.32,22.36 58.23,21.67 C58.15,20.96 57.88,20.26 57.42,19.63 Z" id="Path" fill="#419941"></path>
            <path d="M1.52,19.63 C3.92,16.39 7.45,14.17 11.41,13.39 L11.43,13.39 C15.06,12.68 18.59,14.75 19.82,18.12 C20.03,18.7 19.66,19.34 19.05,19.46 L1.91,22.81 C1.23,22.94 0.62,22.36 0.71,21.67 C0.79,20.96 1.06,20.26 1.52,19.63 Z" id="Path" fill="#419941"></path>
            <path d="M44.5,20.63 C44.5,24.31 37.77,27.3 29.47,27.3 C21.17,27.3 14.44,24.31 14.44,20.63 C14.44,16.95 21.17,13.96 29.47,13.96 C37.77,13.96 44.5,16.95 44.5,20.63 Z" id="Path" fill="#419941"></path>
            <polygon id="Path" fill="#DB552C" points="37.83 44.01 21.11 44.01 16.14 29.36 42.8 29.36"></polygon>
            <polygon id="Path" fill="#DD683A" points="33.31 44.01 25.63 44.01 21.97 29.36 36.97 29.36"></polygon>
            <polygon id="Path" fill="#E04420" opacity="0.5" points="42.8 29.36 29.47 29.36 29.47 44.01 37.85 44.01 37.83 44.01"></polygon>
            <rect id="Rectangle" fill="#E04420" x="21.09" y="44.01" width="16.76" height="2.29"></rect>
            <path d="M29.45,21.12 L29.45,21.12 C33.64,21.12 37.04,24.52 37.04,28.71 L37.04,28.73 C37.04,32.85 35.5,36.83 32.72,39.88 L32.72,39.88 C30.97,41.8 27.94,41.8 26.19,39.88 L26.19,39.88 C23.41,36.83 21.87,32.86 21.87,28.73 L21.87,28.71 C21.87,24.52 25.27,21.12 29.45,21.12 Z" id="Path" fill="#72B451"></path>
            <path d="M38.36,18.16 L38.36,18.16 C41.32,15.2 46.12,15.2 49.09,18.16 L49.1,18.17 C52.02,21.09 53.74,24.99 53.93,29.11 L53.93,29.11 C54.05,31.71 51.91,33.85 49.31,33.73 L49.31,33.73 C45.19,33.54 41.29,31.82 38.37,28.9 L38.36,28.89 C35.4,25.93 35.4,21.12 38.36,18.16 Z" id="Path" fill="#72B451"></path>
            <path d="M20.61,18.16 L20.61,18.16 C23.57,21.12 23.57,25.92 20.61,28.89 L20.6,28.9 C17.68,31.82 13.78,33.54 9.66,33.73 L9.66,33.73 C7.06,33.85 4.92,31.71 5.04,29.11 L5.04,29.11 C5.23,24.99 6.95,21.09 9.87,18.17 L9.88,18.16 C12.84,15.2 17.65,15.2 20.61,18.16 Z" id="Path" fill="#72B451"></path>
            <path d="M37.04,28.73 L37.04,28.71 C37.04,24.52 33.64,21.12 29.46,21.12 L29.46,41.32 C30.65,41.32 31.85,40.84 32.73,39.88 C35.5,36.83 37.04,32.85 37.04,28.73 Z" id="Path" fill="#419941" opacity="0.5"></path>
            <path d="M49.1,18.16 L49.09,18.15 C46.13,15.19 41.33,15.19 38.36,18.15 L52.64,32.43 C53.49,31.59 53.99,30.4 53.93,29.1 C53.74,24.98 52.02,21.08 49.1,18.16 Z" id="Path" fill="#419941" opacity="0.5"></path>
            <path d="M20.6,28.9 L20.61,28.89 C23.57,25.93 23.57,21.13 20.61,18.16 L6.33,32.44 C7.17,33.28 8.36,33.79 9.66,33.73 C13.78,33.54 17.68,31.82 20.6,28.9 Z" id="Path" fill="#419941" opacity="0.5"></path>
            <path d="M29.45,21.54 L29.45,21.54 C32.79,21.54 35.5,24.25 35.5,27.59 L35.5,27.6 C35.5,30.89 34.27,34.06 32.06,36.49 L32.06,36.49 C30.66,38.02 28.25,38.02 26.85,36.49 L26.85,36.49 C24.63,34.06 23.41,30.89 23.41,27.6 L23.41,27.58 C23.41,24.25 26.11,21.54 29.45,21.54 Z" id="Path" fill="#87D4B7" opacity="0.25"></path>
            <path d="M38.65,18.15 L38.65,18.15 C41.01,15.79 44.84,15.79 47.2,18.15 L47.21,18.16 C49.54,20.49 50.91,23.6 51.06,26.88 L51.06,26.88 C51.16,28.95 49.45,30.66 47.38,30.56 L47.38,30.56 C44.09,30.41 40.98,29.03 38.66,26.71 L38.65,26.7 C36.28,24.34 36.28,20.51 38.65,18.15 Z" id="Path" fill="#87D4B7" opacity="0.25"></path>
            <path d="M20.63,18.15 L20.63,18.15 C22.99,20.51 22.99,24.34 20.63,26.7 L20.62,26.71 C18.29,29.04 15.18,30.41 11.9,30.56 L11.9,30.56 C9.83,30.66 8.12,28.95 8.22,26.88 L8.22,26.88 C8.37,23.59 9.75,20.48 12.07,18.16 L12.08,18.15 C14.44,15.79 18.26,15.79 20.63,18.15 Z" id="Path" fill="#87D4B7" opacity="0.25"></path>
        </g>
    </g>
</svg>