<?xml version="1.0" encoding="UTF-8"?>
<svg width="36px" height="58px" viewBox="0 0 36 58" version="1.1" xmlns="http://www.w3.org/2000/svg" xmlns:xlink="http://www.w3.org/1999/xlink">
    <!-- Generator: Sketch 55.1 (78136) - https://sketchapp.com -->
    <title>Group</title>
    <desc>Created with Sketch.</desc>
    <g id="Page-1" stroke="none" stroke-width="1" fill="none" fill-rule="evenodd">
        <g id="Group" fill-rule="nonzero">
            <path d="M9.27,17.46 C9.29,17.52 9.32,17.58 9.34,17.64 C12.61,25.54 13.57,34.22 12.51,42.71 L12.47,42.99 L10.78,43.42 L1.52,7.18 C4.46,10.24 7.65,13.57 9.27,17.46 Z" id="Path" fill="#419941"></path>
            <path d="M3.36,14.31 L2.38,10.46 L4.21,10.04 C5.2,11.14 6.15,12.28 7.01,13.48 L3.36,14.31 Z" id="Path" fill="#72B451"></path>
            <path d="M9.28,17.46 C9.3,17.52 9.33,17.58 9.35,17.64 C9.78,18.69 10.17,19.75 10.53,20.83 L5.33,22.02 L4.35,18.17 L9.1,17.08 C9.16,17.2 9.23,17.33 9.28,17.46 Z" id="Path" fill="#72B451"></path>
            <path d="M12.35,28.56 L7.3,29.72 L6.32,25.87 L11.6,24.66 C11.9,25.95 12.15,27.25 12.35,28.56 Z" id="Path" fill="#72B451"></path>
            <path d="M12.93,36.59 L9.27,37.43 L8.29,33.58 L12.8,32.54 C12.89,33.89 12.94,35.24 12.93,36.59 Z" id="Path" fill="#72B451"></path>
            <path d="M12.53,42.7 L12.49,42.98 L10.8,43.41 L10.25,41.28 L12.71,40.72 C12.66,41.38 12.61,42.04 12.53,42.7 Z" id="Path" fill="#72B451"></path>
            <path d="M14.61,43.06 L18.11,43.06 L18.25,35.3 C18.66,28.28 17.88,21.11 15.96,14.29 L15.96,14.29 C14.7,9.8 13.2,5.52 10.55,1.76 L10.55,1.76 L10.55,1.76 C9.04,6.1 8.79,10.64 8.83,15.3 L8.83,15.3 C8.88,22.38 10.12,29.48 12.46,36.12 L14.61,43.06 Z" id="Path" fill="#419941"></path>
            <polygon id="Path" fill="#ACD75F" opacity="0.25" points="18.11 43.06 14.61 43.06 14.11 41.43 18.15 40.83"></polygon>
            <path d="M9.48,5.94 C9.74,4.53 10.07,3.14 10.55,1.76 L10.55,1.76 C11.38,2.94 12.09,4.18 12.73,5.46 L9.48,5.94 Z" id="Path" fill="#ACD75F" opacity="0.25"></path>
            <path d="M15.61,13.08 L8.83,14.08 C8.84,12.72 8.87,11.37 8.97,10.04 L14.36,9.24 C14.81,10.49 15.22,11.78 15.61,13.08 Z" id="Path" fill="#ACD75F" opacity="0.25"></path>
            <path d="M17.42,20.85 L9.24,22.06 C9.09,20.74 8.97,19.42 8.9,18.09 L16.64,16.95 C16.95,18.23 17.2,19.54 17.42,20.85 Z" id="Path" fill="#ACD75F" opacity="0.25"></path>
            <path d="M18.28,28.76 L10.63,29.89 C10.32,28.6 10.04,27.3 9.81,25.99 L17.99,24.78 C18.13,26.1 18.22,27.43 18.28,28.76 Z" id="Path" fill="#ACD75F" opacity="0.25"></path>
            <path d="M18.25,35.3 L18.22,36.81 L12.91,37.6 L12.45,36.13 C12.17,35.35 11.92,34.56 11.67,33.76 L18.34,32.77 C18.33,33.61 18.3,34.46 18.25,35.3 Z" id="Path" fill="#ACD75F" opacity="0.25"></path>
            <path d="M6.54,25.61 C6.56,25.65 6.59,25.69 6.61,25.73 C9.7,30.91 11.25,36.86 11.37,42.88 L11.37,43.08 L10.24,43.55 L0.09,19.23 C2.45,21.07 5.01,23.06 6.54,25.61 Z" id="Path" fill="#419941"></path>
            <path d="M0.1,19.23 C1.14,20.04 2.22,20.89 3.24,21.8 L1.47,22.51 L0.1,19.23 Z" id="Path" fill="#ACD75F" opacity="0.25"></path>
            <path d="M6.54,25.61 C6.56,25.65 6.59,25.69 6.61,25.73 C7.14,26.61 7.6,27.53 8.04,28.45 L4.53,29.85 L3,26.18 L6.1,24.94 C6.25,25.16 6.41,25.38 6.54,25.61 Z" id="Path" fill="#ACD75F" opacity="0.25"></path>
            <path d="M10.59,35.99 L7.6,37.19 L6.07,33.52 L9.54,32.13 C9.96,33.4 10.31,34.69 10.59,35.99 Z" id="Path" fill="#ACD75F" opacity="0.25"></path>
            <path d="M11.38,42.88 L11.38,43.08 L10.25,43.55 L9.13,40.86 L11.2,40.03 C11.29,40.98 11.36,41.92 11.38,42.88 Z" id="Path" fill="#ACD75F" opacity="0.25"></path>
            <path d="M19.87,42.99 L15.89,42.99 L14.58,35.6 C13.01,28.5 12.75,21.09 13.82,13.86 L13.82,13.86 C14.52,9.1 15.51,4.52 17.88,0.31 L17.88,0.31 L17.88,0.31 C20.25,4.52 21.24,9.1 21.94,13.86 L21.94,13.86 C23,21.09 22.74,28.5 21.18,35.6 L19.87,42.99 Z" id="Path" fill="#419941"></path>
            <path d="M26.49,17.46 C26.47,17.52 26.44,17.58 26.42,17.64 C23.15,25.54 22.19,34.22 23.25,42.71 L23.29,42.99 L24.98,43.42 L34.24,7.18 C31.3,10.24 28.11,13.57 26.49,17.46 Z" id="Path" fill="#419941"></path>
            <path d="M14.87,8.27 L20.89,8.27 C20.56,6.92 20.17,5.59 19.69,4.29 L16.07,4.29 C15.59,5.59 15.2,6.92 14.87,8.27 Z" id="Path" fill="#72B451"></path>
            <path d="M13.82,13.87 C13.7,14.65 13.61,15.44 13.53,16.22 L22.24,16.22 C22.16,15.43 22.06,14.65 21.95,13.87 C21.87,13.33 21.78,12.79 21.7,12.25 L14.08,12.25 C13.98,12.78 13.9,13.32 13.82,13.87 Z" id="Path" fill="#72B451"></path>
            <path d="M13.21,24.17 L22.56,24.17 C22.59,22.85 22.58,21.52 22.53,20.19 L13.25,20.19 C13.19,21.52 13.17,22.85 13.21,24.17 Z" id="Path" fill="#72B451"></path>
            <path d="M13.93,32.12 L21.82,32.12 C22.03,30.8 22.2,29.48 22.32,28.14 L13.43,28.14 C13.56,29.48 13.72,30.8 13.93,32.12 Z" id="Path" fill="#72B451"></path>
            <polygon id="Path" fill="#72B451" points="14.67 36.1 15.37 40.07 20.39 40.07 21.09 36.1"></polygon>
            <path d="M32.4,14.31 L33.38,10.46 L31.55,10.04 C30.56,11.14 29.61,12.28 28.75,13.48 L32.4,14.31 Z" id="Path" fill="#72B451"></path>
            <path d="M26.48,17.46 C26.46,17.52 26.43,17.58 26.41,17.64 C25.98,18.69 25.59,19.75 25.23,20.83 L30.43,22.03 L31.41,18.18 L26.66,17.09 C26.6,17.2 26.53,17.33 26.48,17.46 Z" id="Path" fill="#72B451"></path>
            <path d="M23.41,28.56 L28.46,29.72 L29.44,25.87 L24.16,24.66 C23.86,25.95 23.61,27.25 23.41,28.56 Z" id="Path" fill="#72B451"></path>
            <path d="M22.83,36.59 L26.49,37.43 L27.47,33.58 L22.96,32.54 C22.87,33.89 22.82,35.24 22.83,36.59 Z" id="Path" fill="#72B451"></path>
            <path d="M23.23,42.7 L23.27,42.98 L24.96,43.41 L25.51,41.28 L23.05,40.72 C23.1,41.38 23.15,42.04 23.23,42.7 Z" id="Path" fill="#72B451"></path>
            <path d="M21.15,43.06 L17.65,43.06 L17.51,35.3 C17.1,28.28 17.88,21.11 19.8,14.29 L19.8,14.29 C21.06,9.8 22.56,5.52 25.21,1.76 L25.21,1.76 L25.21,1.76 C26.72,6.1 26.97,10.64 26.93,15.3 L26.93,15.3 C26.88,22.38 25.64,29.48 23.3,36.12 L21.15,43.06 Z" id="Path" fill="#419941"></path>
            <polygon id="Path" fill="#ACD75F" opacity="0.25" points="17.65 43.06 21.15 43.06 21.65 41.43 17.61 40.83"></polygon>
            <path d="M26.29,5.94 C26.03,4.53 25.7,3.14 25.22,1.76 L25.22,1.76 C24.39,2.94 23.68,4.18 23.04,5.46 L26.29,5.94 Z" id="Path" fill="#ACD75F" opacity="0.25"></path>
            <path d="M20.15,13.08 L26.93,14.08 C26.92,12.72 26.89,11.37 26.79,10.04 L21.4,9.24 C20.95,10.49 20.54,11.78 20.15,13.08 Z" id="Path" fill="#ACD75F" opacity="0.25"></path>
            <path d="M18.34,20.85 L26.52,22.06 C26.67,20.74 26.79,19.42 26.86,18.09 L19.12,16.95 C18.81,18.23 18.56,19.54 18.34,20.85 Z" id="Path" fill="#ACD75F" opacity="0.25"></path>
            <path d="M17.48,28.76 L25.13,29.89 C25.44,28.6 25.72,27.3 25.95,25.99 L17.77,24.78 C17.63,26.1 17.54,27.43 17.48,28.76 Z" id="Path" fill="#ACD75F" opacity="0.25"></path>
            <path d="M17.51,35.3 L17.54,36.81 L22.85,37.6 L23.31,36.13 C23.59,35.35 23.84,34.56 24.09,33.76 L17.42,32.77 C17.43,33.61 17.46,34.46 17.51,35.3 Z" id="Path" fill="#ACD75F" opacity="0.25"></path>
            <path d="M29.22,25.61 C29.2,25.65 29.17,25.69 29.15,25.73 C26.06,30.91 24.51,36.86 24.39,42.88 L24.39,43.08 L25.52,43.55 L35.67,19.23 C33.31,21.07 30.75,23.06 29.22,25.61 Z" id="Path" fill="#419941"></path>
            <path d="M35.66,19.23 C34.62,20.04 33.54,20.89 32.52,21.8 L34.29,22.51 L35.66,19.23 Z" id="Path" fill="#ACD75F" opacity="0.25"></path>
            <path d="M29.22,25.61 C29.2,25.65 29.17,25.69 29.15,25.73 C28.62,26.61 28.16,27.53 27.72,28.45 L31.23,29.85 L32.76,26.18 L29.66,24.94 C29.51,25.16 29.35,25.38 29.22,25.61 Z" id="Path" fill="#ACD75F" opacity="0.25"></path>
            <path d="M25.17,35.99 L28.16,37.19 L29.69,33.52 L26.22,32.13 C25.8,33.4 25.45,34.69 25.17,35.99 Z" id="Path" fill="#ACD75F" opacity="0.25"></path>
            <path d="M24.38,42.88 L24.38,43.08 L25.51,43.55 L26.63,40.86 L24.56,40.03 C24.47,40.98 24.4,41.92 24.38,42.88 Z" id="Path" fill="#ACD75F" opacity="0.25"></path>
            <path d="M25.58,57.51 L10.19,57.51 C8.9,57.51 7.86,56.47 7.86,55.18 L7.86,43 L27.9,43 L27.9,55.18 C27.9,56.47 26.86,57.51 25.58,57.51 Z" id="Path" fill="#E2D937"></path>
            <path d="M27.9,55.19 L27.9,43 L17.88,43 L17.88,57.51 L25.57,57.51 C26.86,57.51 27.9,56.47 27.9,55.19 Z" id="Path" fill="#DDBF0A" opacity="0.5"></path>
        </g>
    </g>
</svg>