<?xml version="1.0" encoding="UTF-8"?>
<svg width="54px" height="58px" viewBox="0 0 54 58" version="1.1" xmlns="http://www.w3.org/2000/svg" xmlns:xlink="http://www.w3.org/1999/xlink">
    <!-- Generator: Sketch 55.1 (78136) - https://sketchapp.com -->
    <title>Group</title>
    <desc>Created with Sketch.</desc>
    <g id="Page-1" stroke="none" stroke-width="1" fill="none" fill-rule="evenodd">
        <g id="Group" fill-rule="nonzero">
            <rect id="Rectangle" fill="#563533" x="28.39" y="38.79" width="17.37" height="4.45"></rect>
            <path d="M37.66,42.72 L35.8,42.52 L36.59,32.19 C37.12,27.28 35.53,19.36 32.23,15.69 C28.93,12.01 24.21,9.91 19.27,9.91 L15.04,9.91 L15.04,8.04 L19.27,8.04 C24.74,8.04 29.97,10.37 33.62,14.44 C37.27,18.51 39.03,26.95 38.44,32.39 L37.66,42.72 Z" id="Path" fill="#419941"></path>
            <path d="M38.53,29.07 L36.68,25.85 L37.42,22.41 C38.23,18.63 40.84,15.46 44.4,13.95 L45.13,15.67 C43.63,16.31 42.28,17.45 41.21,18.84 C39.8,20.67 39.08,22.94 38.87,25.24 L38.53,29.07 Z" id="Path" fill="#419941"></path>
            <path d="M26.56,23.25 L25.82,21.53 C28.95,20.19 32.37,19.88 35.69,20.63 L36.92,20.91 L36.51,22.73 L35.28,22.45 C32.35,21.78 29.33,22.06 26.56,23.25 Z" id="Path" fill="#419941"></path>
            <rect id="Rectangle" fill="#E07744" x="27.82" y="43.24" width="17.95" height="3.74"></rect>
            <polygon id="Path" fill="#DB552C" points="43.66 57.51 29.89 57.51 28.39 46.98 45.16 46.98"></polygon>
            <polygon id="Path" fill="#DB552C" opacity="0.5" points="45.16 46.98 45.76 46.98 45.76 43.24 36.82 43.24 36.82 46.98"></polygon>
            <polygon id="Path" fill="#E04420" points="45.16 46.98 36.82 46.98 36.82 57.51 43.66 57.51"></polygon>
            <path d="M25.47,23.42 L24.46,25.48 C23.78,26.57 22.72,27.48 21.47,28.03 L21.47,28.03 C20.47,28.31 19.46,28.35 18.54,28.15 L17.41,28 C16.98,27.85 16.73,27.41 16.82,26.96 L17.27,25.93 C17.57,25.05 18.12,24.21 18.86,23.5 L18.87,23.49 C19.98,22.69 21.31,22.24 22.59,22.21 L24.87,22.39 L25.47,23.42 Z" id="Path" fill="#F9BBCF"></path>
            <path d="M24.72,22.49 L25.18,20.74 C25.53,19.83 26.21,19.15 27.07,18.82 L27.07,18.82 C27.78,18.71 28.54,18.81 29.25,19.12 L30.12,19.42 C30.46,19.62 30.72,20.06 30.71,20.45 L30.52,21.34 C30.42,22.1 30.13,22.8 29.67,23.35 L29.66,23.36 C28.94,23.94 28.01,24.17 27.04,24.01 L25.3,23.52 L24.72,22.49 Z" id="Path" fill="#DB6589"></path>
            <path d="M25.04,21.81 L23.78,21.2 C23.11,20.79 22.56,20.13 22.22,19.37 L22.22,19.37 C22.05,18.76 22.02,18.14 22.15,17.58 L22.24,16.89 C22.33,16.63 22.6,16.47 22.87,16.53 L23.5,16.81 C24.04,16.99 24.55,17.33 24.98,17.78 L24.99,17.79 C25.48,18.47 25.76,19.28 25.77,20.07 L25.66,21.46 L25.04,21.81 Z" id="Path" fill="#F9BBCF"></path>
            <path d="M26.06,23.6 L25.95,25 C25.97,25.78 26.24,26.59 26.73,27.27 L26.73,27.27 C27.17,27.73 27.69,28.06 28.23,28.25 L28.87,28.52 C29.14,28.58 29.41,28.42 29.5,28.16 L29.58,27.47 C29.7,26.91 29.67,26.3 29.5,25.7 L29.5,25.69 C29.16,24.92 28.61,24.27 27.94,23.86 L26.68,23.25 L26.06,23.6 Z" id="Path" fill="#F9BBCF"></path>
            <path d="M26.61,7.92 L24.36,7.49 C23.13,7.12 21.97,6.34 21.11,5.28 L21.11,5.28 C20.58,4.39 20.27,3.42 20.22,2.49 L20.07,1.36 C20.1,0.91 20.46,0.55 20.91,0.52 L22.03,0.69 C22.96,0.75 23.91,1.05 24.79,1.58 L24.8,1.59 C25.86,2.45 26.65,3.61 27.02,4.84 L27.45,7.08 L26.61,7.92 Z" id="Path" fill="#F9BBCF"></path>
            <path d="M27.31,6.94 L29.12,6.93 C30.09,7.03 30.92,7.5 31.47,8.24 L31.47,8.24 C31.77,8.9 31.87,9.65 31.75,10.43 L31.69,11.35 C31.59,11.73 31.23,12.09 30.85,12.19 L29.94,12.24 C29.18,12.34 28.43,12.25 27.78,11.95 L27.77,11.94 C27.02,11.4 26.56,10.56 26.45,9.59 L26.46,7.79 L27.31,6.94 Z" id="Path" fill="#DB6589"></path>
            <path d="M28.04,7.07 L28.3,5.69 C28.52,4.94 29.01,4.23 29.65,3.7 L29.65,3.7 C30.2,3.37 30.79,3.19 31.36,3.16 L32.05,3.07 C32.33,3.09 32.55,3.31 32.56,3.59 L32.46,4.27 C32.43,4.84 32.24,5.42 31.92,5.96 L31.91,5.97 C31.38,6.62 30.67,7.1 29.92,7.33 L28.55,7.59 L28.04,7.07 Z" id="Path" fill="#F9BBCF"></path>
            <path d="M26.59,8.53 L25.21,8.79 C24.46,9.01 23.75,9.5 23.22,10.14 L23.22,10.14 C22.9,10.69 22.71,11.28 22.68,11.85 L22.59,12.54 C22.61,12.82 22.83,13.04 23.11,13.05 L23.79,12.95 C24.36,12.91 24.94,12.73 25.48,12.41 L25.49,12.4 C26.14,11.87 26.62,11.16 26.85,10.41 L27.11,9.04 L26.59,8.53 Z" id="Path" fill="#F9BBCF"></path>
            <path d="M44.92,14.12 L46.08,12.25 C46.83,11.27 47.94,10.5 49.19,10.1 L49.19,10.1 C50.18,9.93 51.15,9.99 52.01,10.27 L53.08,10.52 C53.48,10.7 53.68,11.15 53.54,11.57 L53,12.52 C52.63,13.33 52.02,14.08 51.25,14.69 L51.24,14.7 C50.1,15.36 48.78,15.67 47.55,15.57 L45.39,15.18 L44.92,14.12 Z" id="Path" fill="#F9BBCF"></path>
            <path d="M45.56,15.08 L44.95,16.71 C44.52,17.54 43.81,18.13 42.96,18.37 L42.96,18.37 C42.27,18.41 41.55,18.24 40.9,17.87 L40.1,17.5 C39.79,17.28 39.59,16.83 39.64,16.45 L39.91,15.62 C40.08,14.9 40.43,14.26 40.92,13.78 L40.93,13.77 C41.68,13.29 42.59,13.16 43.5,13.4 L45.12,14.04 L45.56,15.08 Z" id="Path" fill="#DB6589"></path>
            <path d="M45.18,15.7 L46.33,16.41 C46.93,16.87 47.4,17.55 47.65,18.31 L47.65,18.31 C47.75,18.91 47.72,19.51 47.55,20.03 L47.39,20.68 C47.28,20.92 47,21.04 46.75,20.96 L46.17,20.63 C45.67,20.4 45.21,20.03 44.84,19.56 L44.84,19.55 C44.44,18.85 44.25,18.05 44.31,17.29 L44.55,15.97 L45.18,15.7 Z" id="Path" fill="#F9BBCF"></path>
            <path d="M44.37,13.89 L44.61,12.56 C44.67,11.81 44.48,11 44.08,10.31 L44.08,10.31 C43.7,9.83 43.24,9.46 42.73,9.23 L42.14,8.91 C41.89,8.83 41.61,8.95 41.5,9.2 L41.35,9.85 C41.19,10.37 41.15,10.96 41.25,11.55 L41.25,11.56 C41.5,12.33 41.97,13.01 42.57,13.47 L43.71,14.18 L44.37,13.89 Z" id="Path" fill="#F9BBCF"></path>
            <path d="M11.9,10.32 L9.6,11.8 C8.23,12.5 6.58,12.76 4.96,12.55 L4.96,12.55 C3.76,12.21 2.7,11.63 1.89,10.86 L0.83,10.01 C0.48,9.59 0.5,8.98 0.87,8.59 L1.98,7.81 C2.83,7.1 3.91,6.58 5.11,6.31 L5.13,6.31 C6.76,6.18 8.4,6.54 9.74,7.31 L11.96,8.91 L11.9,10.32 Z" id="Path" fill="#F9BBCF"></path>
            <path d="M11.71,8.9 L13.27,7.4 C14.2,6.69 15.31,6.41 16.39,6.61 L16.39,6.61 C17.19,6.94 17.9,7.51 18.44,8.28 L19.14,9.12 C19.37,9.53 19.35,10.14 19.1,10.54 L18.35,11.33 C17.77,12.05 17.04,12.58 16.24,12.86 L16.23,12.86 C15.13,13 14.04,12.66 13.15,11.9 L11.68,10.32 L11.71,8.9 Z" id="Path" fill="#DB6589"></path>
            <path d="M12.46,8.41 L11.56,7 C11.13,6.16 10.97,5.15 11.1,4.16 L11.1,4.16 C11.31,3.43 11.66,2.78 12.14,2.28 L12.66,1.63 C12.91,1.42 13.29,1.43 13.53,1.66 L14,2.34 C14.44,2.86 14.75,3.52 14.92,4.25 L14.92,4.26 C15,5.26 14.78,6.26 14.31,7.08 L13.33,8.44 L12.46,8.41 Z" id="Path" fill="#F9BBCF"></path>
            <path d="M12.4,10.87 L11.42,12.23 C10.95,13.04 10.73,14.04 10.81,15.04 L10.81,15.04 C10.98,15.78 11.3,16.45 11.74,16.97 L12.23,17.65 C12.47,17.88 12.85,17.89 13.1,17.67 L13.61,17.02 C14.07,16.52 14.42,15.88 14.63,15.16 L14.63,15.15 C14.76,14.16 14.6,13.14 14.17,12.3 L13.27,10.89 L12.4,10.87 Z" id="Path" fill="#F9BBCF"></path>
            <path d="M39.47,46.72 L39.47,46.72 C37.46,46.72 35.82,45.09 35.82,43.07 L35.82,37.31 C35.82,36.48 36.49,35.8 37.33,35.8 L41.61,35.8 C42.44,35.8 43.12,36.47 43.12,37.31 L43.12,43.07 C43.11,45.09 41.48,46.72 39.47,46.72 Z" id="Path" fill="#419941"></path>
            <path d="M32.25,38.79 L32.25,40.19 L32.25,40.19 C30.26,40.19 28.64,41.81 28.64,43.8 L28.64,47.25 C28.64,49.16 27.27,50.89 25.37,51.08 C23.19,51.3 21.35,49.59 21.35,47.45 L21.35,45.03 C21.35,41.58 24.15,38.78 27.6,38.78 L32.25,38.78 L32.25,38.79 Z" id="Path" fill="#419941"></path>
            <path d="M27.6,38.79 L30.83,38.79 C27.56,38.79 24.9,41.44 24.9,44.72 L24.9,51.09 C22.93,51.04 21.35,49.45 21.35,47.47 L21.35,45.05 C21.35,41.59 24.15,38.79 27.6,38.79 Z" id="Path" fill="#ACD75F" opacity="0.25"></path>
            <path d="M41.29,38.78 L41.29,40.18 L41.29,40.18 C43.28,40.18 44.9,41.8 44.9,43.79 L44.9,47.24 C44.9,49.15 46.27,50.88 48.17,51.07 C50.35,51.29 52.19,49.58 52.19,47.44 L52.19,45.02 C52.19,41.57 49.39,38.77 45.94,38.77 L41.29,38.77 L41.29,38.78 Z" id="Path" fill="#419941"></path>
            <path d="M45.94,38.78 L42.71,38.78 C45.98,38.78 48.64,41.43 48.64,44.71 L48.64,51.08 C50.61,51.03 52.19,49.44 52.19,47.46 L52.19,45.04 C52.19,41.58 49.39,38.78 45.94,38.78 Z" id="Path" fill="#ACD75F" opacity="0.25"></path>
            <path d="M43.11,43.08 L43.11,37.32 C43.11,36.49 42.44,35.81 41.6,35.81 L39.46,35.81 L39.46,46.72 C41.48,46.72 43.11,45.09 43.11,43.08 Z" id="Path" fill="#ACD75F" opacity="0.25"></path>
            <path d="M32.78,46.57 L32.78,46.57 C31.34,46.57 30.18,45.4 30.18,43.97 L30.18,38.78 L35.39,38.78 L35.39,43.97 C35.39,45.4 34.22,46.57 32.78,46.57 Z" id="Path" fill="#419941"></path>
            <path d="M35.39,43.97 L35.39,38.78 L32.79,38.78 L32.79,46.57 C34.22,46.57 35.39,45.4 35.39,43.97 Z" id="Path" fill="#ACD75F" opacity="0.25"></path>
            <path d="M24.87,22.39 L23.26,22.94 C22.33,23.16 21.3,23.07 20.35,22.71 L20.35,22.71 C19.68,22.33 19.13,21.82 18.75,21.24 L18.24,20.57 C18.09,20.27 18.19,19.9 18.48,19.72 L19.26,19.42 C19.88,19.12 20.6,18.96 21.36,18.98 L21.37,18.98 C22.37,19.14 23.31,19.6 24,20.26 L25.1,21.55 L24.87,22.39 Z" id="Path" fill="#E68EA6"></path>
            <path d="M25.48,23.45 L24.19,24.55 C23.53,25.24 23.08,26.17 22.91,27.17 L22.91,27.17 C22.9,27.94 23.05,28.67 23.36,29.3 L23.68,30.08 C23.86,30.36 24.23,30.46 24.53,30.31 L25.19,29.79 C25.77,29.41 26.27,28.86 26.64,28.2 L26.64,28.19 C27.01,27.24 27.09,26.21 26.87,25.28 L26.32,23.68 L25.48,23.45 Z" id="Path" fill="#E68EA6"></path>
            <path d="M27.45,7.07 L26.49,5.67 C26.04,4.83 25.84,3.81 25.95,2.81 L25.95,2.81 C26.14,2.06 26.48,1.4 26.95,0.88 L27.46,0.21 C27.71,-0.01 28.09,-0.01 28.34,0.21 L28.84,0.88 C29.3,1.4 29.63,2.06 29.82,2.79 L29.82,2.8 C29.93,3.81 29.73,4.83 29.28,5.67 L28.33,7.07 L27.45,7.07 Z" id="Path" fill="#E68EA6"></path>
            <path d="M26.59,7.94 L25.19,6.98 C24.35,6.53 23.33,6.33 22.33,6.44 L22.33,6.44 C21.58,6.63 20.92,6.97 20.4,7.44 L19.73,7.95 C19.51,8.2 19.51,8.58 19.73,8.83 L20.4,9.33 C20.92,9.79 21.58,10.12 22.31,10.31 L22.32,10.31 C23.33,10.42 24.35,10.22 25.19,9.77 L26.59,8.82 L26.59,7.94 Z" id="Path" fill="#E68EA6"></path>
            <path d="M45.4,15.16 L46.99,14.79 C47.9,14.67 48.88,14.85 49.75,15.29 L49.75,15.29 C50.36,15.72 50.84,16.26 51.14,16.86 L51.57,17.55 C51.68,17.85 51.55,18.19 51.26,18.34 L50.48,18.56 C49.86,18.79 49.15,18.87 48.42,18.78 L48.41,18.78 C47.47,18.53 46.61,18 46.02,17.3 L45.09,15.96 L45.4,15.16 Z" id="Path" fill="#E68EA6"></path>
            <path d="M44.91,14.09 L46.25,13.16 C46.95,12.56 47.47,11.71 47.73,10.77 L47.73,10.77 C47.82,10.03 47.74,9.31 47.5,8.69 L47.27,7.91 C47.12,7.62 46.78,7.49 46.48,7.61 L45.8,8.04 C45.21,8.35 44.68,8.82 44.26,9.42 L44.26,9.43 C43.82,10.3 43.64,11.29 43.75,12.2 L44.12,13.79 L44.91,14.09 Z" id="Path" fill="#E68EA6"></path>
            <path d="M11.93,8.9 L9.95,8.47 C8.87,8.12 7.86,7.39 7.12,6.43 L7.12,6.43 C6.67,5.63 6.42,4.76 6.4,3.93 L6.29,2.93 C6.33,2.53 6.66,2.22 7.06,2.21 L8.05,2.38 C8.87,2.45 9.71,2.75 10.48,3.23 L10.49,3.24 C11.41,4.03 12.09,5.08 12.38,6.18 L12.7,8.18 L11.93,8.9 Z" id="Path" fill="#E68EA6"></path>
            <path d="M11.9,10.36 L9.89,10.69 C8.79,10.99 7.74,11.66 6.96,12.58 L6.96,12.58 C6.47,13.36 6.17,14.21 6.1,15.04 L5.94,16.04 C5.95,16.44 6.27,16.77 6.67,16.8 L7.67,16.68 C8.49,16.65 9.35,16.4 10.14,15.96 L10.15,15.95 C11.11,15.21 11.84,14.2 12.2,13.12 L12.63,11.14 L11.9,10.36 Z" id="Path" fill="#E68EA6"></path>
            <path d="M25,21.71 C25.77,21.27 26.64,21.35 26.95,21.9 C27.26,22.44 26.89,23.24 26.12,23.68 C25.35,24.12 24.48,24.03 24.17,23.49 C23.85,22.94 24.23,22.15 25,21.71 Z" id="Path" fill="#DEE94C"></path>
            <path d="M28.14,7.01 C28.77,7.64 28.92,8.5 28.47,8.94 C28.03,9.38 27.16,9.23 26.54,8.61 C25.91,7.98 25.76,7.12 26.21,6.68 C26.64,6.23 27.51,6.38 28.14,7.01 Z" id="Path" fill="#DEE94C"></path>
            <path d="M45.21,15.81 C44.43,16.16 43.6,15.99 43.36,15.44 C43.12,14.89 43.55,14.16 44.33,13.82 C45.11,13.47 45.94,13.64 46.18,14.19 C46.43,14.73 45.99,15.46 45.21,15.81 Z" id="Path" fill="#DEE94C"></path>
            <path d="M12.48,8.27 C13.54,8.3 14.38,8.93 14.36,9.67 C14.34,10.42 13.46,11 12.4,10.97 C11.34,10.94 10.5,10.31 10.52,9.57 C10.55,8.83 11.42,8.25 12.48,8.27 Z" id="Path" fill="#DEE94C"></path>
        </g>
    </g>
</svg>