<?xml version="1.0" encoding="UTF-8"?>
<svg width="59px" height="58px" viewBox="0 0 59 58" version="1.1" xmlns="http://www.w3.org/2000/svg" xmlns:xlink="http://www.w3.org/1999/xlink">
    <!-- Generator: Sketch 55.1 (78136) - https://sketchapp.com -->
    <title>Group</title>
    <desc>Created with Sketch.</desc>
    <g id="Page-1" stroke="none" stroke-width="1" fill="none" fill-rule="evenodd">
        <g id="Group" fill-rule="nonzero">
            <path d="M56.3,34.3 C54.21,33.57 51.76,33.18 49.26,33.18 C48.75,33.18 48.24,33.23 47.74,33.26 L57.88,28.84 L54.47,28.26 C52.42,27.91 50.34,28.09 48.38,28.72 L51.46,24.89 L48.74,25.77 C46.77,26.41 45.03,27.61 43.73,29.22 L43.73,29.22 C42.84,30.33 42.18,31.61 41.79,32.98 L41.64,33.5 C41.55,33.81 41.66,34.14 41.91,34.34 L42.14,34.53 C37.43,34.87 33.19,37.72 31.17,42.07 L29.86,45.13 L31.61,45.88 L32.9,42.85 C34.73,38.91 38.71,36.37 43.05,36.37 L43.05,36.27 C43.05,36.47 43.28,36.66 43.64,36.74 L44.24,36.88 C45.83,37.24 47.53,37.42 49.26,37.42 C51.76,37.42 54.21,37.03 56.3,36.3 L59.09,35.31 L56.3,34.3 Z" id="Path" fill="#72B451"></path>
            <path d="M49.26,37.4 C51.76,37.4 54.21,37.01 56.3,36.28 L59.09,35.29 L43.05,35.29 L43.05,35.32 L41.9,36.25 C41.65,36.45 41.55,36.78 41.63,37.09 L41.78,37.61 C42.17,38.98 42.83,40.26 43.72,41.37 L43.72,41.37 C45.02,42.98 46.76,44.18 48.73,44.82 L51.45,45.7 L48.37,41.87 C50.33,42.5 52.42,42.68 54.46,42.33 L57.87,41.75 L47.73,37.33 C48.25,37.35 48.75,37.4 49.26,37.4 Z" id="Path" fill="#419941"></path>
            <path d="M3.44,34.3 C5.53,33.57 7.98,33.18 10.48,33.18 C10.99,33.18 11.5,33.23 12,33.26 L1.86,28.84 L5.27,28.26 C7.32,27.91 9.4,28.09 11.36,28.72 L8.28,24.89 L11,25.77 C12.97,26.41 14.71,27.61 16.01,29.22 L16.01,29.22 C16.9,30.33 17.56,31.61 17.95,32.98 L18.1,33.5 C18.19,33.81 18.08,34.14 17.83,34.34 L17.6,34.53 C22.31,34.87 26.55,37.72 28.57,42.07 L29.88,45.13 L28.13,45.88 L26.84,42.85 C25.01,38.91 21.03,36.37 16.69,36.37 L16.69,36.27 C16.69,36.47 16.46,36.66 16.1,36.74 L15.5,36.88 C13.91,37.24 12.21,37.42 10.48,37.42 C7.98,37.42 5.53,37.03 3.44,36.3 L0.65,35.31 L3.44,34.3 Z" id="Path" fill="#72B451"></path>
            <path d="M10.48,37.4 C7.98,37.4 5.53,37.01 3.44,36.28 L0.65,35.29 L16.69,35.29 L16.69,35.32 L17.84,36.25 C18.09,36.45 18.19,36.78 18.11,37.09 L17.96,37.61 C17.57,38.98 16.91,40.26 16.02,41.37 L16.02,41.37 C14.72,42.98 12.98,44.18 11.01,44.82 L8.29,45.7 L11.37,41.87 C9.41,42.5 7.32,42.68 5.28,42.33 L1.87,41.75 L12.01,37.33 C11.5,37.35 11,37.4 10.48,37.4 Z" id="Path" fill="#419941"></path>
            <path d="M31.1,4.34 L29.85,0.81 L28.6,4.34 C27.68,6.99 27.18,13.13 27.18,16.3 C27.18,16.91 27.2,17.52 27.24,18.13 L21.69,5.41 L20.95,9.72 C20.51,12.29 20.71,14.93 21.5,17.4 L16.69,13.54 L17.8,16.98 C18.61,19.47 20.12,21.67 22.16,23.31 C23.57,24.44 25.18,25.27 26.92,25.77 L27.58,25.96 C27.97,26.07 28.39,25.94 28.64,25.62 L28.91,25.29 L28.91,44.94 L30.82,44.94 L30.82,24.17 L31.08,24.17 C31.34,24.17 31.57,23.88 31.67,23.43 L31.84,22.67 C32.29,20.66 32.52,18.5 32.52,16.32 C32.51,13.13 32.02,6.99 31.1,4.34 Z" id="Path" fill="#72B451"></path>
            <path d="M38.2,17.39 C38.99,14.92 39.19,12.28 38.75,9.71 L38.01,5.4 L32.46,18.12 C32.5,17.51 32.52,16.91 32.52,16.29 C32.52,13.12 32.02,6.98 31.1,4.33 L29.85,0.8 L29.85,24.11 L29.85,24.11 L29.85,24.11 L29.85,24.15 L29.89,24.15 L31.06,25.61 C31.31,25.92 31.73,26.06 32.12,25.95 L32.78,25.76 C34.51,25.27 36.13,24.43 37.54,23.3 C39.58,21.66 41.1,19.46 41.9,16.97 L43.01,13.53 L38.2,17.39 Z" id="Path" fill="#419941"></path>
            <rect id="Rectangle" fill="#419941" x="29.88" y="24.15" width="1" height="20.77"></rect>
            <path d="M34.78,20.12 C35.25,18.65 35.37,17.09 35.11,15.56 L34.67,13 L31.37,20.56 C31.39,20.2 31.4,19.84 31.4,19.48 C31.4,17.6 31.11,13.95 30.56,12.37 L29.82,10.27 L29.07,12.37 C28.52,13.94 28.23,17.59 28.23,19.48 C28.23,19.84 28.24,20.21 28.26,20.56 L24.96,13 L24.52,15.56 C24.26,17.09 24.38,18.65 24.85,20.12 L21.99,17.82 L22.65,19.87 C23.13,21.35 24.03,22.66 25.24,23.63 C26.07,24.3 27.04,24.8 28.07,25.09 L28.46,25.2 C28.69,25.27 28.94,25.19 29.09,25 L29.79,24.13 L29.83,24.13 L30.53,25 C30.68,25.19 30.93,25.27 31.16,25.2 L31.55,25.09 C32.58,24.8 33.54,24.3 34.38,23.63 C35.59,22.65 36.49,21.35 36.97,19.87 L37.63,17.82 L34.78,20.12 Z" id="Path" fill="#ACD75F" opacity="0.25"></path>
            <path d="M43.06,35.29 C38.72,35.29 34.15,38.06 32.32,41.99 L30.73,45.5 L31.61,45.88 L32.9,42.85 C34.73,38.91 38.71,36.37 43.05,36.37 L43.05,35.29 L43.06,35.29 Z" id="Path" fill="#419941"></path>
            <path d="M29.08,45.48 L27.51,41.94 C25.68,38 21.03,35.28 16.69,35.28 L16.69,36.35 C21.03,36.35 25.01,38.89 26.84,42.83 L28.13,45.86 L29.08,45.48 Z" id="Path" fill="#419941"></path>
            <path d="M12.75,30.42 C11.31,29.96 9.77,29.84 8.27,30.1 L5.76,30.53 L13.18,33.76 C12.83,33.74 12.47,33.73 12.12,33.73 C10.27,33.73 6.69,34.02 5.15,34.56 L3.09,35.29 L5.15,36.02 C6.69,36.56 10.27,36.85 12.12,36.85 C12.48,36.85 12.83,36.84 13.18,36.82 L5.76,40.05 L8.27,40.48 C9.77,40.74 11.3,40.62 12.75,40.16 L10.5,42.96 L12.51,42.31 C13.96,41.84 15.25,40.96 16.2,39.77 C16.86,38.95 17.34,38.01 17.63,37 L17.74,36.62 C17.8,36.39 17.73,36.15 17.54,36 L16.69,35.32 L16.69,35.28 L17.54,34.6 C17.72,34.45 17.8,34.21 17.74,33.98 L17.63,33.6 C17.34,32.59 16.86,31.65 16.2,30.83 C15.24,29.64 13.96,28.76 12.51,28.29 L10.5,27.64 L12.75,30.42 Z" id="Path" fill="#ACD75F" opacity="0.25"></path>
            <path d="M47,40.16 C48.44,40.62 49.98,40.74 51.48,40.48 L53.99,40.05 L46.57,36.82 C46.92,36.84 47.28,36.85 47.63,36.85 C49.48,36.85 53.06,36.56 54.6,36.02 L56.66,35.29 L54.6,34.56 C53.06,34.02 49.48,33.73 47.63,33.73 C47.27,33.73 46.92,33.74 46.57,33.76 L53.99,30.53 L51.48,30.1 C49.98,29.84 48.45,29.96 47,30.42 L49.25,27.62 L47.24,28.27 C45.79,28.74 44.5,29.62 43.55,30.81 C42.89,31.63 42.4,32.57 42.12,33.58 L42.01,33.96 C41.95,34.19 42.02,34.43 42.21,34.58 L43.06,35.26 L43.06,35.3 L42.21,35.98 C42.03,36.13 41.95,36.37 42.01,36.6 L42.12,36.98 C42.41,37.99 42.89,38.93 43.55,39.75 C44.51,40.94 45.79,41.82 47.24,42.29 L49.25,42.94 L47,40.16 Z" id="Path" fill="#ACD75F" opacity="0.25"></path>
            <rect id="Rectangle" fill="#E07744" x="20.71" y="43.4" width="18.3" height="3.81"></rect>
            <polygon id="Path" fill="#DB552C" points="36.86 57.95 22.82 57.95 21.3 47.21 38.39 47.21"></polygon>
            <polygon id="Path" fill="#DB552C" opacity="0.5" points="38.39 47.21 39.01 47.21 39.01 43.4 29.89 43.4 29.89 47.21"></polygon>
            <polygon id="Path" fill="#E04420" points="38.39 47.21 29.89 47.21 29.89 57.95 36.86 57.95"></polygon>
        </g>
    </g>
</svg>