<?xml version="1.0" encoding="UTF-8"?>
<svg width="54px" height="58px" viewBox="0 0 54 58" version="1.1" xmlns="http://www.w3.org/2000/svg" xmlns:xlink="http://www.w3.org/1999/xlink">
    <!-- Generator: Sketch 55.1 (78136) - https://sketchapp.com -->
    <title>Group</title>
    <desc>Created with Sketch.</desc>
    <g id="Page-1" stroke="none" stroke-width="1" fill="none" fill-rule="evenodd">
        <g id="Group" fill-rule="nonzero">
            <path d="M30.65,13.26 L24.19,13.26 L24.19,7.56 C24.19,5.52 22.54,3.87 20.5,3.87 C18.46,3.87 16.81,5.52 16.81,7.56 L16.81,8.54 C16.03,7.74 14.94,7.24 13.73,7.24 C11.35,7.24 9.42,9.17 9.42,11.55 L9.42,12.22 L6.61,12.22 C5.24,12.22 4.12,13.33 4.12,14.71 L4.12,14.71 C4.12,16.08 5.23,17.2 6.61,17.2 L9.42,17.2 L9.42,17.2 L16.8,17.2 L18.03,17.2 L24.18,17.2 L24.18,17.2 L30.64,17.2 C31.73,17.2 32.6100844,16.32 32.6100844,15.23 C32.62,14.14 31.74,13.26 30.65,13.26 Z" id="Path" fill="#419941"></path>
            <rect id="Rectangle" fill="#419941" x="24.19" y="13.05" width="3.79" height="30.55"></rect>
            <path d="M13.37,31.37 L9.24,31.37 C7.97,31.37 6.94,30.34 6.94,29.07 L6.94,27.14 L8.83,27.14 L8.83,29.07 C8.83,29.3 9.01,29.48 9.24,29.48 L13.37,29.48 L13.37,31.37 Z" id="Path" fill="#419941"></path>
            <path d="M31.17,36.44 L24.95,36.44 L24.95,34.55 L31.17,34.55 C31.4,34.55 31.58,34.37 31.58,34.14 L31.58,28.68 L33.47,28.68 L33.47,34.14 C33.47,35.4 32.44,36.44 31.17,36.44 Z" id="Path" fill="#419941"></path>
            <path d="M35.9,32.11 L33.47,32.11 L33.47,30.22 L35.9,30.22 C36.13,30.22 36.31,30.04 36.31,29.81 C36.31,28.54 37.34,27.51 38.61,27.51 L42.18,27.51 L42.18,29.4 L38.61,29.4 C38.38,29.4 38.2,29.58 38.2,29.81 C38.2,31.08 37.17,32.11 35.9,32.11 Z" id="Path" fill="#419941"></path>
            <path d="M26.08,21.93 L20.9,21.93 C19.63,21.93 18.6,20.9 18.6,19.63 L18.6,17.2 L20.49,17.2 L20.49,19.63 C20.49,19.86 20.67,20.04 20.9,20.04 L26.08,20.04 L26.08,21.93 Z" id="Path" fill="#419941"></path>
            <path d="M25.09,33.06 L15.37,33.06 C14.1,33.06 13.07,32.03 13.07,30.76 L13.07,26.82 L14.96,26.82 L14.96,30.76 C14.96,30.99 15.14,31.17 15.37,31.17 L25.09,31.17 L25.09,33.06 Z" id="Path" fill="#419941"></path>
            <rect id="Rectangle" fill="#E07744" x="16.81" y="43.06" width="18.18" height="3.79"></rect>
            <polygon id="Path" fill="#DB552C" points="32.86 57.51 18.91 57.51 17.39 46.85 34.37 46.85"></polygon>
            <polygon id="Path" fill="#DB552C" opacity="0.5" points="34.37 46.85 34.98 46.85 34.98 43.06 25.93 43.06 25.93 46.85"></polygon>
            <polygon id="Path" fill="#E04420" points="34.37 46.85 25.93 46.85 25.93 57.51 32.86 57.51"></polygon>
            <path d="M33.86,4.04 L30.55,4.04 C29.93,1.97 28.04,0.44 25.76,0.44 C22.99,0.44 20.74,2.69 20.74,5.46 L20.74,8.11 L17.25,8.11 C15.73,8.11 14.5,9.34 14.5,10.86 C14.5,12.38 15.73,13.61 17.25,13.61 L21.97,13.61 L23.96,13.61 L33.85,13.61 C36.49,13.61 38.6301391,11.47 38.6301391,8.83 C38.65,6.19 36.51,4.04 33.86,4.04 Z" id="Path" fill="#72B451"></path>
            <path d="M19.1,23.99 L17.63,23.99 L17.63,23.65 C17.63,22.29 16.53,21.19 15.17,21.19 L12.87,21.19 L12.87,20.81 C12.87,19.59 11.88,18.6 10.66,18.6 C9.44,18.6 8.45,19.59 8.45,20.81 L8.45,21.19 L6.15,21.19 C4.79,21.19 3.69,22.29 3.69,23.65 L3.69,23.99 L2.22,23.99 C1.15,23.99 0.28,24.86 0.28,25.93 C0.28,27 1.15,27.87 2.22,27.87 L19.11,27.87 C20.18,27.87 21.05,27 21.05,25.93 C21.04,24.86 20.17,23.99 19.1,23.99 Z" id="Path" fill="#72B451"></path>
            <path d="M53.48,23.38 C53.48,21.35 52.08,19.66 50.2,19.19 L50.2,17.21 C50.2,14.84 48.28,12.91 45.9,12.91 L44.48,12.91 C43.94,11.52 42.6,10.53 41.02,10.53 L40.42,10.53 C38.36,10.53 36.7,12.2 36.7,14.25 L36.7,14.95 L33.28,14.95 C31.04,14.95 29.22,16.77 29.22,19.01 L29.22,21.8 C27.71,22.19 26.59,23.55 26.59,25.18 C26.59,27.11 28.16,28.68 30.09,28.68 L32.6,28.68 C34.38,28.68 35.84,27.34 36.06,25.62 L39.91,25.62 L39.91,27.8 C39.91,30.22 41.87,32.19 44.3,32.19 L45.34,32.19 C47.68,32.19 49.57,30.3 49.57,27.96 L49.57,27.68 C51.76,27.45 53.48,25.63 53.48,23.38 Z" id="Path" fill="#72B451"></path>
            <path d="M28.79,5.62 L26.76,5.62 C26.38,4.35 25.22,3.41 23.82,3.41 C22.12,3.41 20.74,4.79 20.74,6.49 L20.74,8.11 L18.6,8.11 C17.67,8.11 16.92,8.86 16.92,9.79 C16.92,10.72 17.67,11.47 18.6,11.47 L21.49,11.47 L22.71,11.47 L28.77,11.47 C30.39,11.47 31.7,10.16 31.7,8.54 C31.72,6.93 30.41,5.62 28.79,5.62 Z" id="Path" fill="#419941" opacity="0.5"></path>
            <path d="M15.97,25.5 L15.07,25.5 L15.07,25.29 C15.07,24.46 14.39,23.78 13.56,23.78 L12.15,23.78 L12.15,23.55 C12.15,22.8 11.54,22.2 10.8,22.2 C10.05,22.2 9.45,22.81 9.45,23.55 L9.45,23.78 L8.04,23.78 C7.21,23.78 6.53,24.46 6.53,25.29 L6.53,25.5 L5.63,25.5 C4.97,25.5 4.44,26.03 4.44,26.69 C4.44,27.35 4.97,27.88 5.63,27.88 L15.98,27.88 C16.64,27.88 17.17,27.35 17.17,26.69 C17.16,26.03 16.63,25.5 15.97,25.5 Z" id="Path" fill="#419941" opacity="0.5"></path>
            <path d="M46.98,20.11 C46.98,18.87 46.12,17.83 44.97,17.54 L44.97,16.33 C44.97,14.88 43.79,13.7 42.34,13.7 L41.47,13.7 C41.14,12.85 40.32,12.24 39.35,12.24 L38.98,12.24 C37.72,12.24 36.7,13.26 36.7,14.52 L36.7,14.95 L34.6,14.95 C33.23,14.95 32.11,16.06 32.11,17.44 L32.11,19.15 C31.19,19.39 30.5,20.22 30.5,21.22 C30.5,22.41 31.46,23.37 32.65,23.37 L34.19,23.37 C35.28,23.37 36.17,22.55 36.31,21.49 L38.67,21.49 L38.67,22.82 C38.67,24.3 39.87,25.51 41.36,25.51 L42,25.51 C43.43,25.51 44.59,24.35 44.59,22.92 L44.59,22.75 C45.93,22.61 46.98,21.49 46.98,20.11 Z" id="Path" fill="#419941" opacity="0.5"></path>
            <path d="M27.39,3.66 C27.39,4.49 26.72,5.16 25.89,5.16 C25.06,5.16 24.39,4.49 24.39,3.66 C24.39,2.83 25.06,2.16 25.89,2.16 C26.71,2.15 27.39,2.82 27.39,3.66 Z" id="Path" fill="#DDBF0A"></path>
            <circle id="Oval" fill="#DDBF0A" cx="35.73" cy="7.76" r="1.5"></circle>
            <path d="M41.9,13.19 C41.9,14.02 41.23,14.69 40.4,14.69 C39.57,14.69 38.9,14.02 38.9,13.19 C38.9,12.36 39.57,11.69 40.4,11.69 C41.23,11.68 41.9,12.36 41.9,13.19 Z" id="Path" fill="#DDBF0A"></path>
            <path d="M46.26,28.52 C46.26,29.35 45.59,30.02 44.76,30.02 C43.93,30.02 43.26,29.35 43.26,28.52 C43.26,27.69 43.93,27.02 44.76,27.02 C45.59,27.02 46.26,27.69 46.26,28.52 Z" id="Path" fill="#DDBF0A"></path>
            <path d="M51.62,21.87 C51.62,22.7 50.95,23.37 50.12,23.37 C49.29,23.37 48.62,22.7 48.62,21.87 C48.62,21.04 49.29,20.37 50.12,20.37 C50.95,20.37 51.62,21.04 51.62,21.87 Z" id="Path" fill="#DDBF0A"></path>
            <path d="M45.06,20.41 C45.06,21.24 44.39,21.91 43.56,21.91 C42.73,21.91 42.06,21.24 42.06,20.41 C42.06,19.58 42.73,18.91 43.56,18.91 C44.39,18.9 45.06,19.58 45.06,20.41 Z" id="Path" fill="#DDBF0A"></path>
            <path d="M31.26,24.95 C31.26,25.78 30.59,26.45 29.76,26.45 C28.93,26.45 28.26,25.78 28.26,24.95 C28.26,24.12 28.93,23.45 29.76,23.45 C30.59,23.45 31.26,24.12 31.26,24.95 Z" id="Path" fill="#DDBF0A"></path>
            <path d="M11.35,14.73 C11.35,15.56 10.68,16.23 9.85,16.23 C9.02,16.23 8.35,15.56 8.35,14.73 C8.35,13.9 9.02,13.23 9.85,13.23 C10.67,13.23 11.35,13.9 11.35,14.73 Z" id="Path" fill="#DDBF0A"></path>
            <path d="M6.99,25.46 C6.99,26.29 6.32,26.96 5.49,26.96 C4.66,26.96 3.99,26.29 3.99,25.46 C3.99,24.63 4.66,23.96 5.49,23.96 C6.32,23.96 6.99,24.63 6.99,25.46 Z" id="Path" fill="#DDBF0A"></path>
            <path d="M18.86,10.95 C18.86,11.78 18.19,12.45 17.36,12.45 C16.53,12.45 15.86,11.78 15.86,10.95 C15.86,10.12 16.53,9.45 17.36,9.45 C18.19,9.45 18.86,10.11 18.86,10.95 Z" id="Path" fill="#DDBF0A"></path>
        </g>
    </g>
</svg>