<?xml version="1.0" encoding="UTF-8"?>
<svg width="32px" height="58px" viewBox="0 0 32 58" version="1.1" xmlns="http://www.w3.org/2000/svg" xmlns:xlink="http://www.w3.org/1999/xlink">
    <!-- Generator: Sketch 55.1 (78136) - https://sketchapp.com -->
    <title>Group</title>
    <desc>Created with Sketch.</desc>
    <g id="Page-1" stroke="none" stroke-width="1" fill="none" fill-rule="evenodd">
        <g id="Group" fill-rule="nonzero">
            <path d="M16.7,4.31 C15.56,4.22 14.42,4.47 13.42,5.03 C12.5,5.55 11.68,6.23 11.01,7.05 L10.39,7.81 L10.68,6.58 C10.92,5.55 10.97,4.48 10.82,3.44 C10.66,2.31 10.16,1.25 9.4,0.4 C8.95,-0.1 8.13,0.02 7.84,0.62 C7.35,1.65 7.17,2.81 7.34,3.94 C7.49,4.99 7.84,6 8.36,6.92 L9.01,8.05 L8.15,7.4 C7.31,6.76 6.35,6.28 5.34,5.99 C4.24,5.68 3.07,5.7 1.99,6.05 C1.35,6.26 1.21,6.99 1.56,7.56 C2.23,8.65 3.28,9.08 4.38,9.37 C6.64,9.96 8,9.2 9.05,9.1 L10.55,8.93 C11.6,8.79 12.59,9.11 14.96,8.18 C16.02,7.76 17.12,6.82 17.48,5.7 C17.67,5.04 17.37,4.36 16.7,4.31 Z" id="Path" fill="#F4977E"></path>
            <polygon id="Path" fill="#E2D937" points="23.77 55.29 9.1 55.29 4.73 42.43 28.14 42.43"></polygon>
            <polygon id="Path" fill="#DEE94C" points="19.81 55.29 13.07 55.29 9.85 42.43 23.03 42.43"></polygon>
            <polygon id="Path" fill="#DDBF0A" opacity="0.5" points="28.14 42.43 16.44 42.43 16.44 55.29 23.79 55.29 23.77 55.29"></polygon>
            <rect id="Rectangle" fill="#DDBF0A" x="9.08" y="55.29" width="14.72" height="2.01"></rect>
            <path d="M19.65,42.42 L7.63,42.42 L3.3,31.08 C1.59,26.6 0.96,21.78 1.45,17 L1.45,17 C1.88,12.85 5.14,9.55 9.28,9.07 L10.27,8.95 C14.41,8.46 18.34,10.91 19.73,14.84 L19.73,14.84 C21.33,19.36 21.83,24.2 21.21,28.96 L19.65,42.42 Z" id="Path" fill="#429489"></path>
            <path d="M17.5,42.42 L9.79,42.42 L6.52,30.7 C5.23,26.17 4.62,21.34 4.74,16.62 L4.74,16.62 C4.85,12.51 6.81,9.36 9.47,9.05 L10.11,8.98 C12.77,8.67 15.41,11.27 16.47,15.24 L16.47,15.24 C17.69,19.81 18.22,24.64 18.02,29.35 L17.5,42.42 Z" id="Path" fill="#1B3C3D" opacity="0.25"></path>
            <path d="M30.91,27.73 C30.4,27.44 29.81,27.31 29.23,27.35 C28.69,27.39 28.16,27.53 27.66,27.76 L27.21,27.98 L27.61,27.47 C27.95,27.04 28.2,26.56 28.36,26.04 C28.53,25.48 28.53,24.88 28.36,24.31 C28.26,23.98 27.85,23.85 27.58,24.07 C27.13,24.44 26.79,24.94 26.62,25.51 C26.46,26.03 26.4,26.58 26.45,27.12 L26.5,27.79 L26.24,27.3 C25.99,26.82 25.65,26.39 25.24,26.03 C24.8,25.64 24.25,25.4 23.66,25.33 C23.32,25.29 23.09,25.6 23.13,25.94 C23.2,26.59 23.6,27.02 24.05,27.4 C24.98,28.17 25.77,28.11 26.29,28.29 L27.03,28.54 C27.55,28.7 27.94,29.07 29.25,29.15 C29.84,29.19 30.56,28.99 30.96,28.54 C31.2,28.28 31.21,27.9 30.91,27.73 Z" id="Path" fill="#F4977E"></path>
            <path d="M25.3,42.42 L19.39,42.42 L19.36,42.42 C18.76,39.02 19.23,33.35 21,30.39 C21.01,30.37 21.03,30.35 21.04,30.33 L21.04,30.33 C22.15,28.49 24.38,27.66 26.42,28.34 L26.91,28.5 C28.95,29.18 30.25,31.17 30.03,33.31 L30.03,33.31 C30.03,33.33 30.02,33.36 30.02,33.38 C29.66,36.81 27.92,40.05 25.41,42.42 L25.3,42.42 L25.3,42.42 Z" id="Path" fill="#87D4B7"></path>
            <path d="M24.24,42.42 L20.57,42.42 L20.43,39.49 C20.41,38.15 20.55,36.82 20.9,35.52 C21.32,33.91 21.92,32.34 22.66,30.86 L22.66,30.86 C23.61,28.97 25.21,27.93 26.51,28.36 L26.82,28.46 C28.13,28.89 28.79,30.68 28.42,32.77 L28.42,32.77 C28.13,34.4 27.66,36.01 27.04,37.55 C26.54,38.8 25.05,41.36 24.24,42.42 L24.24,42.42 Z" id="Path" fill="#429489" opacity="0.25"></path>
            <path d="M23.03,42.42 L21.65,42.42 C21.65,42.42 22.26,38.2 22.37,37.79 C22.96,35.67 23.68,33.52 24.48,31.47 L24.48,31.47 C25.24,29.52 26.13,28.24 26.6,28.4 L26.71,28.44 C27.19,28.6 27.13,30.15 26.58,32.17 L26.58,32.17 C26,34.29 25.29,36.45 24.49,38.5 C24.35,38.89 23.03,42.42 23.03,42.42 Z" id="Path" fill="#87D4B7"></path>
            <path d="M15.05,42.42 L12.24,42.42 L10.17,30.27 C9.35,25.68 8.77,20.85 8.46,16.18 L8.46,16.18 C8.2,12.11 8.7,9.14 9.66,9.03 L9.89,9 C10.86,8.89 12.04,11.66 12.73,15.68 L12.73,15.68 C13.52,20.3 14.08,25.13 14.35,29.78 L15.05,42.42 Z" id="Path" fill="#429489"></path>
            <path d="M1.79,15.93 L1.79,15.93 C1.45,15.97 1.15,15.73 1.11,15.39 L1.02,14.64 C0.98,14.3 1.22,14 1.56,13.96 L1.56,13.96 C1.9,13.92 2.2,14.16 2.24,14.5 L2.33,15.26 C2.37,15.59 2.13,15.89 1.79,15.93 Z" id="Path" fill="#3E9FA5"></path>
            <path d="M5.08,15.54 L5.08,15.54 C4.74,15.58 4.44,15.34 4.4,15 L4.31,14.25 C4.27,13.91 4.51,13.61 4.85,13.57 L4.85,13.57 C5.19,13.53 5.49,13.77 5.53,14.11 L5.62,14.87 C5.65,15.2 5.41,15.5 5.08,15.54 Z" id="Path" fill="#3E9FA5"></path>
            <path d="M8.58,15.13 L8.58,15.13 C8.24,15.17 7.94,14.93 7.9,14.59 L7.81,13.83 C7.77,13.49 8.01,13.19 8.35,13.15 L8.35,13.15 C8.69,13.11 8.99,13.35 9.03,13.69 L9.12,14.45 C9.16,14.79 8.92,15.09 8.58,15.13 Z" id="Path" fill="#3E9FA5"></path>
            <path d="M12.4,14.68 L12.4,14.68 C12.06,14.72 11.76,14.48 11.72,14.14 L11.63,13.39 C11.59,13.05 11.83,12.75 12.17,12.71 L12.17,12.71 C12.51,12.67 12.81,12.91 12.85,13.25 L12.94,14.01 C12.98,14.33 12.74,14.64 12.4,14.68 Z" id="Path" fill="#3E9FA5"></path>
            <path d="M15.89,14.27 L15.89,14.27 C15.55,14.31 15.25,14.07 15.21,13.73 L15.12,12.97 C15.08,12.63 15.32,12.33 15.66,12.29 L15.66,12.29 C16,12.25 16.3,12.49 16.34,12.83 L16.43,13.59 C16.47,13.92 16.23,14.23 15.89,14.27 Z" id="Path" fill="#3E9FA5"></path>
            <path d="M19.02,13.9 L19.02,13.9 C18.68,13.94 18.38,13.7 18.34,13.36 L18.25,12.6 C18.21,12.26 18.45,11.96 18.79,11.92 L18.79,11.92 C19.13,11.88 19.43,12.12 19.47,12.46 L19.56,13.22 C19.6,13.55 19.36,13.86 19.02,13.9 Z" id="Path" fill="#3E9FA5"></path>
            <path d="M20.57,17.83 L20.57,17.83 C20.23,17.87 19.93,17.63 19.89,17.29 L19.8,16.53 C19.76,16.19 20,15.89 20.34,15.85 L20.34,15.85 C20.68,15.81 20.98,16.05 21.02,16.39 L21.11,17.15 C21.15,17.48 20.91,17.79 20.57,17.83 Z" id="Path" fill="#3E9FA5"></path>
            <path d="M17.12,18.23 L17.12,18.23 C16.78,18.27 16.48,18.03 16.44,17.69 L16.35,16.93 C16.31,16.59 16.55,16.29 16.89,16.25 L16.89,16.25 C17.23,16.21 17.53,16.45 17.57,16.79 L17.66,17.55 C17.7,17.89 17.46,18.19 17.12,18.23 Z" id="Path" fill="#3E9FA5"></path>
            <path d="M13.13,18.7 L13.13,18.7 C12.79,18.74 12.49,18.5 12.45,18.16 L12.36,17.41 C12.32,17.07 12.56,16.77 12.9,16.73 L12.9,16.73 C13.24,16.69 13.54,16.93 13.58,17.27 L13.67,18.02 C13.7,18.36 13.46,18.66 13.13,18.7 Z" id="Path" fill="#3E9FA5"></path>
            <path d="M8.65,19.23 L8.65,19.23 C8.31,19.27 8.01,19.03 7.97,18.69 L7.88,17.93 C7.84,17.59 8.08,17.29 8.42,17.25 L8.42,17.25 C8.76,17.21 9.06,17.45 9.1,17.79 L9.19,18.55 C9.22,18.89 8.98,19.19 8.65,19.23 Z" id="Path" fill="#3E9FA5"></path>
            <path d="M4.83,19.68 L4.83,19.68 C4.49,19.72 4.19,19.48 4.15,19.14 L4.06,18.38 C4.02,18.04 4.26,17.74 4.6,17.7 L4.6,17.7 C4.94,17.66 5.24,17.9 5.28,18.24 L5.37,19 C5.4,19.34 5.16,19.64 4.83,19.68 Z" id="Path" fill="#3E9FA5"></path>
            <path d="M1.38,20.09 L1.38,20.09 C1.04,20.13 0.74,19.89 0.7,19.55 L0.61,18.79 C0.57,18.45 0.81,18.15 1.15,18.11 L1.15,18.11 C1.49,18.07 1.79,18.31 1.83,18.65 L1.92,19.41 C1.95,19.75 1.71,20.05 1.38,20.09 Z" id="Path" fill="#3E9FA5"></path>
            <path d="M1.61,24.69 L1.61,24.69 C1.27,24.73 0.97,24.49 0.93,24.15 L0.84,23.39 C0.8,23.05 1.04,22.75 1.38,22.71 L1.38,22.71 C1.72,22.67 2.02,22.91 2.06,23.25 L2.15,24.01 C2.19,24.34 1.95,24.65 1.61,24.69 Z" id="Path" fill="#3E9FA5"></path>
            <path d="M5.16,24.27 L5.16,24.27 C4.82,24.31 4.52,24.07 4.48,23.73 L4.39,22.98 C4.35,22.64 4.59,22.34 4.93,22.3 L4.93,22.3 C5.27,22.26 5.57,22.5 5.61,22.84 L5.7,23.6 C5.73,23.93 5.49,24.23 5.16,24.27 Z" id="Path" fill="#3E9FA5"></path>
            <path d="M9.19,23.79 L9.19,23.79 C8.85,23.83 8.55,23.59 8.51,23.25 L8.42,22.49 C8.38,22.15 8.62,21.85 8.96,21.81 L8.96,21.81 C9.3,21.77 9.6,22.01 9.64,22.35 L9.73,23.1 C9.76,23.45 9.52,23.75 9.19,23.79 Z" id="Path" fill="#3E9FA5"></path>
            <path d="M13.81,23.25 L13.81,23.25 C13.47,23.29 13.17,23.05 13.13,22.71 L13.04,21.95 C13,21.61 13.24,21.31 13.58,21.27 L13.58,21.27 C13.92,21.23 14.22,21.47 14.26,21.81 L14.35,22.56 C14.38,22.9 14.14,23.21 13.81,23.25 Z" id="Path" fill="#3E9FA5"></path>
            <path d="M17.84,22.77 L17.84,22.77 C17.5,22.81 17.2,22.57 17.16,22.23 L17.07,21.47 C17.03,21.13 17.27,20.83 17.61,20.79 L17.61,20.79 C17.95,20.75 18.25,20.99 18.29,21.33 L18.38,22.09 C18.41,22.43 18.17,22.73 17.84,22.77 Z" id="Path" fill="#3E9FA5"></path>
            <path d="M21.38,22.35 L21.38,22.35 C21.04,22.39 20.74,22.15 20.7,21.81 L20.61,21.05 C20.57,20.71 20.81,20.41 21.15,20.37 L21.15,20.37 C21.49,20.33 21.79,20.57 21.83,20.91 L21.92,21.67 C21.96,22.01 21.72,22.32 21.38,22.35 Z" id="Path" fill="#3E9FA5"></path>
            <path d="M21.65,26.99 L21.65,26.99 C21.31,27.03 21.01,26.79 20.97,26.45 L20.88,25.69 C20.84,25.35 21.08,25.05 21.42,25.01 L21.42,25.01 C21.76,24.97 22.06,25.21 22.1,25.55 L22.19,26.31 C22.23,26.64 21.99,26.95 21.65,26.99 Z" id="Path" fill="#3E9FA5"></path>
            <path d="M14.21,27.87 L14.21,27.87 C13.87,27.91 13.57,27.67 13.53,27.33 L13.44,26.57 C13.4,26.23 13.64,25.93 13.98,25.89 L13.98,25.89 C14.32,25.85 14.62,26.09 14.66,26.43 L14.75,27.19 C14.79,27.52 14.55,27.83 14.21,27.87 Z" id="Path" fill="#3E9FA5"></path>
            <path d="M9.83,28.38 L9.83,28.38 C9.49,28.42 9.19,28.18 9.15,27.84 L9.06,27.09 C9.02,26.75 9.26,26.45 9.6,26.41 L9.6,26.41 C9.94,26.37 10.24,26.61 10.28,26.95 L10.37,27.71 C10.4,28.04 10.16,28.34 9.83,28.38 Z" id="Path" fill="#3E9FA5"></path>
            <path d="M2.46,29.25 L2.46,29.25 C2.12,29.29 1.82,29.05 1.78,28.71 L1.69,27.95 C1.65,27.61 1.89,27.31 2.23,27.27 L2.23,27.27 C2.57,27.23 2.87,27.47 2.91,27.81 L3,28.57 C3.03,28.91 2.79,29.21 2.46,29.25 Z" id="Path" fill="#3E9FA5"></path>
            <path d="M3.88,33.61 L3.88,33.61 C3.54,33.65 3.24,33.41 3.2,33.07 L3.11,32.31 C3.07,31.97 3.31,31.67 3.65,31.63 L3.65,31.63 C3.99,31.59 4.29,31.83 4.33,32.17 L4.42,32.93 C4.46,33.26 4.22,33.57 3.88,33.61 Z" id="Path" fill="#3E9FA5"></path>
            <path d="M12.57,32.58 L12.57,32.58 C12.23,32.62 11.93,32.38 11.89,32.04 L11.8,31.29 C11.76,30.95 12,30.65 12.34,30.61 L12.34,30.61 C12.68,30.57 12.98,30.81 13.02,31.15 L13.11,31.91 C13.14,32.24 12.9,32.54 12.57,32.58 Z" id="Path" fill="#3E9FA5"></path>
            <path d="M25.16,32.94 L25.16,32.94 C24.83,32.83 24.66,32.48 24.77,32.16 L25.01,31.43 C25.12,31.1 25.47,30.93 25.79,31.04 L25.79,31.04 C26.12,31.15 26.29,31.5 26.18,31.82 L25.94,32.55 C25.84,32.87 25.49,33.04 25.16,32.94 Z" id="Path" fill="#3E9FA5"></path>
            <path d="M29.66,34.64 L29.66,34.64 C29.33,34.53 29.16,34.18 29.27,33.86 L29.51,33.13 C29.62,32.8 29.97,32.63 30.29,32.74 L30.29,32.74 C30.62,32.85 30.79,33.2 30.68,33.52 L30.44,34.25 C30.34,34.57 29.99,34.75 29.66,34.64 Z" id="Path" fill="#3E9FA5"></path>
            <path d="M28.83,37.94 L28.83,37.94 C28.5,37.83 28.33,37.48 28.44,37.16 L28.68,36.43 C28.79,36.1 29.14,35.93 29.46,36.04 L29.46,36.04 C29.79,36.15 29.96,36.5 29.85,36.82 L29.61,37.55 C29.51,37.87 29.15,38.05 28.83,37.94 Z" id="Path" fill="#3E9FA5"></path>
            <path d="M23.87,36.84 L23.87,36.84 C23.54,36.73 23.37,36.38 23.48,36.06 L23.72,35.33 C23.83,35 24.18,34.83 24.5,34.94 L24.5,34.94 C24.83,35.05 25,35.4 24.89,35.72 L24.65,36.45 C24.55,36.77 24.2,36.94 23.87,36.84 Z" id="Path" fill="#3E9FA5"></path>
            <path d="M19.14,35.05 L19.14,35.05 C18.81,34.94 18.64,34.59 18.75,34.27 L18.99,33.54 C19.1,33.21 19.45,33.04 19.77,33.15 L19.77,33.15 C20.1,33.26 20.27,33.61 20.16,33.93 L19.92,34.66 C19.81,34.99 19.46,35.16 19.14,35.05 Z" id="Path" fill="#3E9FA5"></path>
            <path d="M20.6,31.42 L20.6,31.42 C20.27,31.31 20.1,30.96 20.21,30.64 L20.45,29.91 C20.56,29.58 20.91,29.41 21.23,29.52 L21.23,29.52 C21.56,29.63 21.73,29.98 21.62,30.3 L21.38,31.03 C21.28,31.35 20.93,31.53 20.6,31.42 Z" id="Path" fill="#3E9FA5"></path>
        </g>
    </g>
</svg>