<?xml version="1.0" encoding="UTF-8"?>
<svg width="41px" height="58px" viewBox="0 0 41 58" version="1.1" xmlns="http://www.w3.org/2000/svg" xmlns:xlink="http://www.w3.org/1999/xlink">
    <!-- Generator: Sketch 55.1 (78136) - https://sketchapp.com -->
    <title>Group</title>
    <desc>Created with Sketch.</desc>
    <g id="Page-1" stroke="none" stroke-width="1" fill="none" fill-rule="evenodd">
        <g id="Group" fill-rule="nonzero">
            <path d="M27.92,57.82 L12.2,57.82 C10.95,57.82 9.93,56.8 9.93,55.55 L9.93,43.15 L30.19,43.15 L30.19,55.55 C30.18,56.8 29.17,57.82 27.92,57.82 Z" id="Path" fill="#E2D937"></path>
            <path d="M23.77,57.82 L16.33,57.82 C15.52,57.82 14.87,57.17 14.87,56.36 L14.87,43.15 L25.23,43.15 L25.23,56.36 C25.23,57.16 24.58,57.82 23.77,57.82 Z" id="Path" fill="#DEE94C"></path>
            <path d="M30.18,55.46 L30.18,43.15 L20.05,43.15 L20.05,57.82 L27.83,57.82 C29.13,57.82 30.18,56.76 30.18,55.46 Z" id="Path" fill="#DDBF0A" opacity="0.5"></path>
            <polygon id="Path" fill="#429489" points="21.99 18.94 18.52 18.94 20.25 0.77 20.25 0.77"></polygon>
            <polygon id="Path" fill="#87D4B7" points="23.88 23.74 16.23 23.74 16.23 5.59 20.05 18.45 23.88 5.59"></polygon>
            <path d="M19.62,19.55 L20.95,21.5 C22.23,16.85 26.55,12.19 31.87,12.25 C25.24,14.84 24.83,19.7 24.83,25.28 L17.79,25.28 L17.79,22.91 L19.62,19.55 Z" id="Path" fill="#429489"></path>
            <path d="M16.2,19.35 C17.21,20.41 18.11,21.59 18.87,22.87 L19.69,21.26 L21.73,26.08 L21.73,31.68 L14.4,31.68 C14.78,22.72 10.76,17.15 3.35,14.96 L0.87,14.08 L0.91,14.08 C6.57,13.74 12.28,15.24 16.2,19.35 Z" id="Path" fill="#87D4B7"></path>
            <path d="M22.34,23.95 C21.33,25.01 20.43,26.19 19.67,27.47 L18.85,25.86 L16.33,30.72 L16.8,36.28 L25.74,36.28 C25.36,27.32 33.55,20.72 38.4,17.95 L40.86,16.65 L40.82,16.65 C35.17,16.32 26.26,19.85 22.34,23.95 Z" id="Path" fill="#429489"></path>
            <path d="M16.99,31.19 C18,32.25 18.64,33.18 19.41,34.46 L20.48,33.1 L22.52,36.29 L22.52,40.31 L13.58,40.31 C13.58,34.73 7.37,27.97 2.53,25.2 L0.07,23.9 L0.11,23.9 C5.77,23.55 13.08,27.08 16.99,31.19 Z" id="Path" fill="#87D4B7"></path>
            <path d="M21.9,34.03 C20.89,35.09 19.99,36.27 19.23,37.55 L16.8,35.94 L13.15,40.76 L13.15,43.14 L26.91,43.14 C26.91,37.56 29.9,32.41 34.75,29.64 L37.21,28.34 L37.17,28.34 C31.51,28.01 25.82,29.92 21.9,34.03 Z" id="Path" fill="#429489"></path>
        </g>
    </g>
</svg>