<?xml version="1.0" encoding="UTF-8"?>
<svg width="35px" height="59px" viewBox="0 0 35 59" version="1.1" xmlns="http://www.w3.org/2000/svg" xmlns:xlink="http://www.w3.org/1999/xlink">
    <!-- Generator: Sketch 55.1 (78136) - https://sketchapp.com -->
    <title>Group</title>
    <desc>Created with Sketch.</desc>
    <g id="Page-1" stroke="none" stroke-width="1" fill="none" fill-rule="evenodd">
        <g id="Group" fill-rule="nonzero">
            <path d="M10.77,22.8 L9.29,22.44 L10.41,17.9 C10.67,16.83 11.44,15.97 12.48,15.59 C13.28,15.3 14.17,15.38 14.91,15.81 C15.65,16.24 16.15,16.98 16.28,17.82 L16.51,19.29 L15.01,19.53 L14.78,18.06 C14.72,17.67 14.49,17.32 14.14,17.12 C13.79,16.92 13.39,16.88 13.01,17.02 C12.45,17.22 12.04,17.69 11.9,18.26 L10.77,22.8 Z" id="Path" fill="#72B451"></path>
            <path d="M20.6,28.72 L19.53,27.64 L19.88,27.29 C21.25,25.93 23.42,25.71 25.04,26.76 L24.21,28.04 C23.19,27.38 21.82,27.51 20.95,28.38 L20.6,28.72 Z" id="Path" fill="#72B451"></path>
            <path d="M20.78,15.45 C21.08,13.77 22.31,12.58 23.73,12.58 L25.52,12.58 C26.94,12.58 28.17,13.78 28.47,15.45 L28.47,15.45 C28.7,16.75 28.35,18.11 27.55,19.03 L24.63,22.36 L21.71,19.03 C20.9,18.11 20.55,16.75 20.78,15.45 L20.78,15.45 Z" id="Path" fill="#419941"></path>
            <path d="M21.59,9.23 C21.59,8.91 21.72,8.62 21.96,8.41 C22.2,8.2 22.5,8.09 22.82,8.13 C23.39,8.19 23.82,8.66 23.82,9.23 L23.82,13.44 L25.34,13.44 L25.34,9.23 C25.34,7.87 24.32,6.75 22.97,6.61 C22.49,6.56 22.01,6.66 21.59,6.86 L21.59,9.23 Z" id="Path" fill="#419941"></path>
            <polygon id="Path" fill="#492623" points="21.58 4.96 20.07 4.96 20.07 20.67 12.51 20.67 12.51 22.18 20.07 22.18 20.07 40.44 21.58 40.44"></polygon>
            <rect id="Rectangle" fill="#492623" x="7.96" y="37.94" width="18.27" height="5.6"></rect>
            <rect id="Rectangle" fill="#E07744" x="7.96" y="43.54" width="18.27" height="3.81"></rect>
            <polygon id="Path" fill="#DB552C" points="24.09 58.07 10.07 58.07 8.55 47.35 25.61 47.35"></polygon>
            <polygon id="Path" fill="#DB552C" opacity="0.5" points="25.61 47.35 26.23 47.35 26.23 43.54 17.12 43.54 17.12 47.35"></polygon>
            <polygon id="Path" fill="#E04420" points="25.61 47.35 17.12 47.35 17.12 58.07 24.09 58.07"></polygon>
            <path d="M23.08,36.96 C20.81,33.9 16.96,32.53 13.27,33.48 L12.59,33.65 L12.21,32.17 L12.89,32 C17.19,30.9 21.66,32.49 24.3,36.05 L23.08,36.96 Z" id="Path" fill="#419941"></path>
            <path d="M20.93,7.28 C20.38,7.78 20.06,8.49 20.06,9.23 L20.06,16.03 C20.06,16.86 19.38,17.54 18.55,17.54 L17.91,17.54 C15.99,17.54 14.42,19.11 14.42,21.03 C14.42,22.95 15.98,24.52 17.91,24.52 L18.55,24.52 C19.38,24.52 20.06,25.2 20.06,26.03 C20.06,26.8 19.76,27.52 19.21,28.07 C18.67,28.61 17.95,28.91 17.18,28.91 C17.18,28.91 17.17,28.91 17.17,28.91 C15.47,28.88 13.99,29.54 12.83,30.69 C11.67,31.85 11.03,33.39 11.03,35.02 L11.03,38.03 L12.55,38.03 L12.55,35.02 C12.55,33.79 13.03,32.63 13.9,31.77 C14.77,30.91 15.92,30.43 17.14,30.43 C17.15,30.43 17.17,30.43 17.18,30.43 C18.35,30.43 19.45,29.98 20.28,29.15 C21.11,28.32 21.57,27.21 21.57,26.03 C21.57,24.36 20.21,22.99 18.53,22.99 L17.89,22.99 C16.81,22.99 15.92,22.11 15.92,21.02 C15.92,19.94 16.8,19.05 17.89,19.05 L18.53,19.05 C20.18,19.05 21.53,17.72 21.56,16.07 L21.56,6.84 C21.35,6.97 21.13,7.1 20.93,7.28 Z" id="Path" fill="#419941"></path>
            <path d="M23.4,8.39 L21.97,8.39 C21.96,8.4 21.95,8.4 21.95,8.4 C21.71,8.61 21.58,8.91 21.58,9.22 L21.58,9.62 L23.8,9.62 L24.94,9.62 L24.94,8.38 L23.4,8.38 L23.4,8.39 Z" id="Path" fill="#492623"></path>
            <g transform="translate(0.000000, 34.000000)" id="Path">
                <path d="M3.58,1.53 C5.58,0.13 8.04,0.17 9.48,1.61 L11.29,3.42 C12.73,4.86 12.77,7.32 11.37,9.32 L11.37,9.32 C10.28,10.88 8.55,11.9 6.81,12.01 L0.47,12.42 L0.88,6.08 C1.01,4.34 2.03,2.61 3.58,1.53 L3.58,1.53 Z" fill="#419941"></path>
                <path d="M3.58,1.52 C5.58,0.12 8.04,0.16 9.48,1.6 L10.39,2.51 L0.47,12.42 L0.88,6.08 C1.01,4.34 2.03,2.61 3.58,1.52 Z" fill="#ACD75F" opacity="0.25"></path>
            </g>
            <g transform="translate(11.000000, 34.000000)" id="Path">
                <path d="M0.57,4.62 C1,2.22 2.76,0.5 4.8,0.5 L7.37,0.5 C9.41,0.5 11.17,2.22 11.6,4.62 L11.6,4.62 C11.93,6.49 11.43,8.43 10.28,9.75 L6.09,14.53 L1.9,9.75 C0.74,8.43 0.23,6.49 0.57,4.62 L0.57,4.62 Z" fill="#419941"></path>
                <path d="M0.57,4.62 C1,2.22 2.76,0.5 4.8,0.5 L6.08,0.5 L6.08,14.52 L1.89,9.74 C0.74,8.43 0.23,6.49 0.57,4.62 Z" fill="#ACD75F" opacity="0.25"></path>
            </g>
            <g transform="translate(21.000000, 34.000000)" id="Path">
                <path d="M1.4,9.3 C1.66533454e-16,7.3 0.04,4.84 1.48,3.4 L3.29,1.59 C4.73,0.15 7.19,0.11 9.19,1.51 L9.19,1.51 C10.75,2.6 11.77,4.33 11.88,6.07 L12.29,12.41 L5.95,12 C4.21,11.87 2.48,10.85 1.4,9.3 L1.4,9.3 Z" fill="#419941"></path>
                <path d="M1.4,9.3 C5.55111512e-17,7.3 0.04,4.84 1.48,3.4 L2.39,2.49 L12.3,12.41 L5.96,12 C4.21,11.87 2.48,10.85 1.4,9.3 Z" fill="#ACD75F" opacity="0.25"></path>
            </g>
            <path d="M20.49,8.85 L20.94,7.25 C21.21,6.32 20.81,5.31 19.98,4.81 L19.36,4.43 L20.15,3.12 L20.77,3.5 C21.76,4.1 22.39,5.11 22.53,6.21 L22.63,6.16 C24.11,5.47 25.89,5.76 27.07,6.89 L26.01,7.99 C25.28,7.29 24.18,7.11 23.27,7.54 L20.49,8.85 Z" id="Path" fill="#419941"></path>
            <g transform="translate(13.000000, 0.000000)" id="Path">
                <path d="M7.02,1.08 C8.21,1.68 8.83,2.87 8.5,3.94 L8.09,5.28 C7.77,6.35 6.59,7 5.27,6.84 L5.27,6.84 C4.24,6.72 3.31,6.15 2.8,5.34 L0.97,2.4 L4.13,0.97 C5,0.56 6.09,0.61 7.02,1.08 L7.02,1.08 Z" fill="#419941"></path>
                <path d="M7.02,1.08 C8.21,1.68 8.83,2.87 8.5,3.94 L8.3,4.61 L0.98,2.39 L4.14,0.96 C5,0.56 6.09,0.61 7.02,1.08 Z" fill="#ACD75F" opacity="0.25"></path>
            </g>
            <g transform="translate(25.000000, 5.000000)" id="Path">
                <path d="M2.09,6.03 C0.93,5.38 0.36,4.16 0.72,3.11 L1.18,1.79 C1.55,0.74 2.75,0.14 4.06,0.35 L4.06,0.35 C5.08,0.51 5.99,1.12 6.47,1.95 L8.18,4.96 L4.97,6.27 C4.09,6.62 2.99,6.54 2.09,6.03 L2.09,6.03 Z" fill="#419941"></path>
                <path d="M2.09,6.03 C0.93,5.38 0.36,4.16 0.72,3.11 L0.95,2.45 L8.18,4.96 L4.97,6.27 C4.09,6.62 2.99,6.54 2.09,6.03 Z" fill="#ACD75F" opacity="0.25"></path>
            </g>
            <g transform="translate(4.000000, 20.000000)" id="Path">
                <path d="M1.26,2.84 C2.26,1.18 4.05,0.41 5.57,0.99 L7.47,1.72 C8.98,2.3 9.8,4.07 9.44,5.97 L9.44,5.97 C9.15,7.45 8.23,8.75 7,9.39 L2.54,11.74 L0.79,7.01 C0.3,5.72 0.48,4.14 1.26,2.84 L1.26,2.84 Z" fill="#419941"></path>
                <path d="M1.26,2.84 C2.26,1.18 4.05,0.41 5.57,0.99 L6.52,1.35 L2.54,11.74 L0.79,7.01 C0.3,5.72 0.48,4.14 1.26,2.84 Z" fill="#ACD75F" opacity="0.25"></path>
            </g>
            <g transform="translate(23.000000, 24.000000)" id="Path">
                <path d="M2.6,8.6 C0.91,7.66 0.08,5.89 0.61,4.36 L1.28,2.44 C1.81,0.91 3.56,0.03 5.47,0.34 L5.47,0.34 C6.96,0.58 8.28,1.46 8.97,2.67 L11.46,7.06 L6.79,8.96 C5.51,9.46 3.92,9.33 2.6,8.6 L2.6,8.6 Z" fill="#419941"></path>
                <path d="M2.6,8.6 C0.91,7.66 0.08,5.89 0.61,4.36 L0.94,3.4 L11.45,7.05 L6.78,8.95 C5.51,9.46 3.92,9.33 2.6,8.6 Z" fill="#ACD75F" opacity="0.25"></path>
            </g>
        </g>
    </g>
</svg>